<svg width="202" height="20" viewBox="0 0 202 20" fill="none" xmlns="http://www.w3.org/2000/svg">
<path d="M4.83807 9.25992V18.9799H2.97807V9.7399C2.39807 11.3999 1.67807 12.9199 0.838066 14.2999L0.0180664 12.2399C1.33807 10.4799 2.31807 8.4599 2.93807 6.1799H0.478065V4.35989H2.97807V0.619904H4.83807V4.35989H6.85807V6.1799H4.83807V7.0799C5.63807 7.9599 6.41807 8.89991 7.21807 9.93991C8.81807 9.29991 10.2181 8.57991 11.4181 7.77991C10.6981 7.09991 10.0781 6.39991 9.55807 5.65991C9.11807 6.19991 8.63807 6.6999 8.15807 7.1799L6.95807 5.71991C8.31807 4.47991 9.47807 2.7799 10.4381 0.579895L12.2581 0.999908C12.0581 1.43991 11.8781 1.87991 11.6781 2.27991H17.0981V3.7399C16.4181 5.2599 15.4581 6.61992 14.1981 7.81992C15.4981 8.65992 17.0181 9.3599 18.7381 9.9599L17.8781 11.7599C15.8981 10.9199 14.2181 9.9999 12.8381 8.9599C11.5981 9.8799 10.1381 10.6799 8.49807 11.3599H16.9581V19.0199H15.1181V18.2599H10.1781V19.0199H8.31807V11.4399C7.99807 11.5599 7.67807 11.6799 7.37807 11.7999L6.79807 11.0399L6.33807 11.7399C5.75807 10.7399 5.25807 9.91992 4.83807 9.25992ZM10.1781 16.4999H15.1181V13.1199H10.1781V16.4999ZM12.7181 6.75992C13.6581 5.91992 14.4181 5.0399 14.9981 4.0799H10.6581C10.5981 4.15989 10.5381 4.2599 10.4981 4.3399C11.0781 5.2199 11.8181 6.01992 12.7181 6.75992ZM22.7781 10.5799H36.0581V12.4399H22.7781V10.5799ZM20.4981 16.2799H38.3381V18.1199H20.4981V16.2799ZM21.2781 5.2399H31.2381C32.0181 3.7799 32.6981 2.21992 33.2781 0.539917L35.1381 1.19992C34.5381 2.69992 33.8781 4.0399 33.1581 5.2399H37.5581V7.05991H21.2781V5.2399ZM25.3981 0.759918C26.0781 1.75992 26.7581 2.87989 27.4181 4.0799L25.7381 4.93991C25.0581 3.69991 24.3581 2.5999 23.5981 1.6199L25.3981 0.759918ZM41.1781 3.5199H48.5181V0.759918H50.3581V3.5199H57.7381V5.3399H51.9581C53.3381 7.4599 55.5781 9.33991 58.6981 10.9999L57.3781 12.6799C54.0781 10.5199 51.7381 8.09992 50.3581 5.41992V13.3399H48.5181V5.47992C47.0181 8.43992 44.5981 10.8999 41.2781 12.8399L40.1781 11.0799C43.2581 9.55989 45.5181 7.6599 46.9781 5.3399H41.1781V3.5199ZM42.7181 13.7799L44.3181 14.5599C43.5981 16.2599 42.7381 17.7399 41.7581 18.9799L40.1981 17.8399C41.1581 16.6999 41.9981 15.3399 42.7181 13.7799ZM47.6181 14.3399C48.0581 15.6399 48.4381 17.0599 48.7781 18.5799L46.8781 18.9999C46.5981 17.3799 46.2381 15.9399 45.8181 14.6999L47.6181 14.3399ZM51.9181 14.0399C52.4781 15.3999 52.9781 16.8599 53.4181 18.4399L51.5181 18.8799C51.1381 17.1799 50.6581 15.6799 50.0981 14.3999L51.9181 14.0399ZM55.6381 13.5399C56.9581 15.1399 57.9781 16.5399 58.6981 17.7399L57.1181 18.8199C56.3781 17.5199 55.3781 16.0799 54.0981 14.5199L55.6381 13.5399ZM62.7781 10.5799H76.0581V12.4399H62.7781V10.5799ZM60.4981 16.2799H78.3381V18.1199H60.4981V16.2799ZM61.2781 5.2399H71.2381C72.0181 3.7799 72.6981 2.21992 73.2781 0.539917L75.1381 1.19992C74.5381 2.69992 73.8781 4.0399 73.1581 5.2399H77.5581V7.05991H61.2781V5.2399ZM65.3981 0.759918C66.0781 1.75992 66.7581 2.87989 67.4181 4.0799L65.7381 4.93991C65.0581 3.69991 64.3581 2.5999 63.5981 1.6199L65.3981 0.759918ZM82.2381 0.799896C83.6981 1.7999 84.9181 2.81992 85.9181 3.81992L84.5381 5.19992C83.6781 4.23992 82.4581 3.19991 80.8981 2.09991L82.2381 0.799896ZM81.6381 5.49991C82.9981 6.47991 84.1381 7.4599 85.0581 8.4599L83.6781 9.85989C82.8781 8.89989 81.7781 7.87992 80.3381 6.75992L81.6381 5.49991ZM83.9181 11.1199L85.6181 11.8199C84.6981 14.3199 83.6781 16.6799 82.5381 18.8799L80.6781 18.0399C81.9181 15.7999 82.9981 13.4799 83.9181 11.1199ZM96.9381 10.2999V19.0599H95.0781V17.9599H88.7981V19.0599H86.9381V10.2999H96.9381ZM88.7981 16.1799H95.0781V12.0399H88.7981V16.1799ZM94.9981 2.85989C96.2181 4.57989 97.3781 6.49991 98.4581 8.59991L96.6781 9.4599C96.4181 8.9399 96.1781 8.43992 95.9381 7.97992C92.9981 8.33992 89.7381 8.6399 86.1781 8.8399L85.8581 7.1199C86.9781 6.7999 88.5181 4.61992 90.4781 0.539917L92.3781 1.1799C91.1381 3.4999 89.8981 5.4399 88.6381 7.0199C90.8381 6.8799 92.9781 6.65991 95.0581 6.37991C94.4981 5.41991 93.9181 4.49991 93.3381 3.65991L94.9981 2.85989ZM104.058 2.71991H105.698V16.9999H103.518V5.3399C102.658 6.1599 101.558 6.75992 100.238 7.13992V4.97992C100.878 4.81992 101.538 4.53992 102.258 4.13992C102.978 3.69992 103.578 3.23991 104.058 2.71991ZM113.422 2.43991C115.162 2.43991 116.482 3.0599 117.402 4.3399C118.282 5.55991 118.742 7.2599 118.742 9.4599C118.742 11.7799 118.262 13.6599 117.322 15.0999C116.342 16.5399 115.042 17.2799 113.402 17.2799C110.622 17.2799 109.062 15.9799 108.702 13.3999H110.822C111.102 14.7799 111.982 15.4799 113.422 15.4799C114.402 15.4799 115.182 14.9799 115.782 14.0199C116.342 13.0999 116.642 11.9399 116.642 10.5599C116.642 10.4799 116.622 10.3999 116.622 10.2999H116.542C116.142 10.9199 115.622 11.3799 115.022 11.6999C114.442 11.9799 113.782 12.1399 113.042 12.1399C111.642 12.1399 110.502 11.6799 109.662 10.7799C108.842 9.89991 108.442 8.75989 108.442 7.35989C108.442 5.91989 108.902 4.7599 109.862 3.8399C110.822 2.8999 112.002 2.43991 113.422 2.43991ZM113.502 4.2399C112.622 4.2399 111.902 4.5199 111.382 5.1199C110.842 5.6999 110.582 6.43989 110.582 7.35989C110.582 8.27989 110.842 8.99992 111.382 9.53992C111.882 10.0999 112.582 10.3799 113.482 10.3799C114.362 10.3799 115.082 10.0999 115.602 9.53992C116.122 8.97992 116.382 8.2199 116.382 7.2999C116.382 6.3599 116.102 5.61989 115.582 5.0799C115.042 4.5199 114.342 4.2399 113.502 4.2399ZM125.414 2.43991C127.154 2.43991 128.474 3.0599 129.394 4.3399C130.274 5.55991 130.734 7.2599 130.734 9.4599C130.734 11.7799 130.254 13.6599 129.314 15.0999C128.334 16.5399 127.034 17.2799 125.394 17.2799C122.614 17.2799 121.054 15.9799 120.694 13.3999H122.814C123.094 14.7799 123.974 15.4799 125.414 15.4799C126.394 15.4799 127.174 14.9799 127.774 14.0199C128.334 13.0999 128.634 11.9399 128.634 10.5599C128.634 10.4799 128.614 10.3999 128.614 10.2999H128.534C128.134 10.9199 127.614 11.3799 127.014 11.6999C126.434 11.9799 125.774 12.1399 125.034 12.1399C123.634 12.1399 122.494 11.6799 121.654 10.7799C120.834 9.89991 120.434 8.75989 120.434 7.35989C120.434 5.91989 120.894 4.7599 121.854 3.8399C122.814 2.8999 123.994 2.43991 125.414 2.43991ZM125.494 4.2399C124.614 4.2399 123.894 4.5199 123.374 5.1199C122.834 5.6999 122.574 6.43989 122.574 7.35989C122.574 8.27989 122.834 8.99992 123.374 9.53992C123.874 10.0999 124.574 10.3799 125.474 10.3799C126.354 10.3799 127.074 10.0999 127.594 9.53992C128.114 8.97992 128.374 8.2199 128.374 7.2999C128.374 6.3599 128.094 5.61989 127.574 5.0799C127.034 4.5199 126.334 4.2399 125.494 4.2399ZM132.186 2.71991H141.786V4.47992L136.726 16.9999H134.406L139.586 4.69992H132.186V2.71991ZM147.742 4.5199C146.902 5.9199 145.862 7.07992 144.602 8.03992L143.322 6.43991C145.322 4.93991 146.662 2.93992 147.342 0.419922L149.302 0.779907C149.102 1.45991 148.902 2.0799 148.662 2.6799H160.822V4.5199H154.682V7.27991H160.122V9.05991H154.682V12.9399H161.442V14.7999H154.682V19.1199H152.782V14.7999H143.702V12.9399H146.842V7.27991H152.782V4.5199H147.742ZM148.762 12.9399H152.782V9.05991H148.762V12.9399ZM163.602 7.53992H166.302V0.639923H168.122V7.53992H170.362V9.27991H168.122V9.87991C169.082 10.7999 170.022 11.8199 170.982 12.9399L169.902 14.5599C169.222 13.3399 168.622 12.3399 168.122 11.5599V19.0599H166.302V12.0599C165.702 13.6199 164.922 15.0399 164.002 16.3399L163.182 14.2799C164.542 12.8199 165.562 11.1599 166.202 9.27991H163.602V7.53992ZM169.382 1.97992L170.782 2.15991C170.662 3.83991 170.362 5.3199 169.882 6.6199L168.662 6.21991C169.022 4.99991 169.262 3.57992 169.382 1.97992ZM164.962 2.27991C165.242 3.49991 165.502 4.8999 165.722 6.4599L164.462 6.77991C164.222 5.37991 163.942 4.01991 163.602 2.71991L164.962 2.27991ZM175.462 0.579895H177.282V1.75992H181.302V3.2999H177.282V4.27991H180.722V5.77991H177.282V6.77991H181.762V8.35989H170.922V6.77991H175.462V5.77991H171.902V4.27991H175.462V3.2999H171.322V1.75992H175.462V0.579895ZM173.622 13.3999V14.4799H179.002V13.3999H173.622ZM179.002 11.9599V10.8199H173.622V11.9599H179.002ZM173.622 15.8999V19.0199H171.842V9.27991H180.822V17.0799C180.822 18.2999 180.202 18.9199 178.962 18.9199H177.582L177.122 17.2599L178.422 17.3599C178.802 17.3599 179.002 17.1399 179.002 16.6999V15.8999H173.622ZM194.642 7.4599V9.37991H199.142V7.4599H194.642ZM199.142 5.97992V4.03992H194.642V5.97992H199.142ZM197.102 0.479919C197.302 1.07992 197.482 1.75991 197.682 2.49991H200.822V10.9199H197.882C198.042 11.8799 198.322 12.7399 198.702 13.5399C199.402 13.0199 200.082 12.3199 200.722 11.3999L201.902 12.5599C201.182 13.5599 200.362 14.3199 199.482 14.8799C200.122 15.7999 200.942 16.6199 201.942 17.2999L200.962 18.8999C198.322 16.9399 196.742 14.2799 196.202 10.9199H194.642V16.7599C195.482 16.4799 196.322 16.1599 197.162 15.7799L197.542 17.3599C196.322 17.8799 194.802 18.3999 192.962 18.8799L192.462 17.0799C192.802 16.9199 192.982 16.6799 192.982 16.3599V2.49991H195.882C195.682 1.85991 195.482 1.29991 195.262 0.779907L197.102 0.479919ZM183.762 1.2999H192.182V3.0199H189.982V4.97992H191.962V19.0799H190.362V17.9999H185.642V19.0999H184.042V4.97992H186.022V3.0199H183.762V1.2999ZM185.642 16.2799H190.362V14.5999H185.642V16.2799ZM186.382 6.6199H185.642V11.3199C186.122 10.5599 186.362 9.4599 186.382 8.0199V6.6199ZM185.642 11.7399V12.9599H190.362V11.5599H189.702C188.822 11.5599 188.402 11.0599 188.402 10.0799V6.6199H187.562V8.0199C187.542 10.0199 187.162 11.4799 186.402 12.4199L185.642 11.7399ZM187.562 4.97992H188.442V3.0199H187.562V4.97992ZM190.362 10.1799V6.6199H189.622V9.71991C189.622 10.0199 189.762 10.1799 190.042 10.1799H190.362Z" fill="white"/>
</svg>
