<svg width="232" height="45" viewBox="0 0 232 45" fill="none" xmlns="http://www.w3.org/2000/svg">
<path d="M36.8 17.36L36.28 15.72C34.733 16.84 33.24 17.4 31.8 17.4C30.493 17.4 29.353 17.167 28.38 16.7C27.4062 16.22 26.5995 15.593 25.9595 14.82C25.3195 14.033 24.8395 13.147 24.5195 12.16C24.2129 11.16 24.0595 10.14 24.0595 9.10001C24.0595 8.04701 24.2395 7.01999 24.5995 6.01999C24.9729 5.00699 25.5129 4.10701 26.2195 3.32001C26.9395 2.53301 27.8129 1.90001 28.84 1.42001C29.866 0.927013 31.04 0.679993 32.36 0.679993C34.2 0.679993 35.893 1.08 37.44 1.88V5.72C37.2 5.76 36.986 5.78 36.8 5.78C36.6 5.78 36.433 5.76 36.3 5.72L35.66 2.38C34.806 1.847 33.626 1.57999 32.12 1.57999C31.28 1.57999 30.52 1.773 29.84 2.16C29.16 2.533 28.573 3.04701 28.08 3.70001C27.5862 4.34001 27.2062 5.10001 26.9395 5.98001C26.6729 6.84701 26.5395 7.77301 26.5395 8.76001C26.5395 9.81301 26.6595 10.787 26.8995 11.68C27.1529 12.573 27.5062 13.347 27.9595 14C28.413 14.653 28.96 15.167 29.6 15.54C30.253 15.9 30.98 16.08 31.78 16.08C33.073 16.08 34.346 15.727 35.6 15.02V10.76L33.98 10.56C33.953 10.493 33.94 10.387 33.94 10.24C33.94 10.173 33.94 10.107 33.94 10.04C33.94 9.97301 33.953 9.90001 33.98 9.82001C34.353 9.84701 34.76 9.867 35.2 9.88C35.653 9.893 36.16 9.89999 36.72 9.89999C37.693 9.89999 38.613 9.88 39.48 9.84C39.52 9.96 39.54 10.08 39.54 10.2C39.54 10.32 39.52 10.44 39.48 10.56L37.82 10.8C37.793 11.053 37.773 11.373 37.76 11.76C37.746 12.147 37.74 12.607 37.74 13.14V15.16L37.54 17.36C37.486 17.387 37.433 17.4 37.38 17.4C37.326 17.4 37.266 17.4 37.2 17.4C37.133 17.4 37.066 17.4 37 17.4C36.933 17.4 36.866 17.387 36.8 17.36ZM43.714 17L40.854 17.06C40.774 16.82 40.774 16.58 40.854 16.34L42.514 16.12C42.567 15.44 42.594 14.653 42.594 13.76V1.95999L40.974 1.76001C40.92 1.56001 40.92 1.31299 40.974 1.01999C41.707 1.07299 42.62 1.10001 43.714 1.10001C44.687 1.10001 45.607 1.08001 46.474 1.04001C46.554 1.28001 46.554 1.52001 46.474 1.76001L44.814 2C44.76 2.507 44.734 3.287 44.734 4.34V15.98H51.334L52.274 12.36C52.474 12.307 52.72 12.307 53.014 12.36L52.994 17H43.714ZM56.168 13.76V1.95999L54.548 1.73999C54.468 1.49999 54.468 1.25999 54.548 1.01999L57.288 1.07999H65.368L65.388 5.72C65.094 5.773 64.848 5.773 64.648 5.72L63.708 2.10001H58.308V8.10001L61.508 8.04001L61.968 6.07999C62.168 6.02699 62.414 6.02699 62.708 6.07999C62.654 6.82699 62.628 7.687 62.628 8.66C62.628 9.553 62.648 10.42 62.688 11.26C62.448 11.34 62.208 11.34 61.968 11.26L61.528 9.17999L58.308 9.11999V15.98H64.308L65.248 12.36C65.448 12.307 65.694 12.307 65.988 12.36L65.968 17H57.288L54.428 17.06C54.348 16.82 54.348 16.58 54.428 16.34L56.088 16.12C56.141 15.44 56.168 14.653 56.168 13.76ZM81.022 11.64V4.39999C81.022 3.34699 80.995 2.567 80.942 2.06L79.082 1.82001C79.002 1.58001 79.002 1.34001 79.082 1.10001C79.922 1.14001 80.735 1.16 81.522 1.16C82.389 1.16 83.195 1.13299 83.942 1.07999C83.995 1.37299 83.995 1.62001 83.942 1.82001L82.122 2.01999V17H81.062L72.242 5.06C71.829 4.513 71.342 3.80001 70.782 2.92001C70.849 3.53301 70.882 4.27301 70.882 5.14001V13.74C70.882 14.793 70.909 15.573 70.962 16.08L72.822 16.32C72.902 16.56 72.902 16.8 72.822 17.04C71.675 17.013 70.862 17 70.382 17C69.595 17 68.789 17.02 67.962 17.06C67.909 16.767 67.909 16.52 67.962 16.32L69.782 16.12V4.34C69.782 3.287 69.755 2.507 69.702 2L68.042 1.76001C67.962 1.53301 67.962 1.30699 68.042 1.07999H71.962L79.982 12C80.089 12.147 80.202 12.32 80.322 12.52C80.455 12.72 80.595 12.96 80.742 13.24C80.902 13.52 81.029 13.733 81.122 13.88C81.055 13.08 81.022 12.333 81.022 11.64ZM100.84 13.74V2.23999L94.8 17.6H94.28L88.46 2.73999V13.74C88.46 14.793 88.486 15.573 88.54 16.08L90.4 16.32C90.48 16.56 90.48 16.8 90.4 17.04C89.253 17.013 88.44 17 87.96 17C87.16 17 86.353 17.02 85.54 17.06C85.486 16.767 85.486 16.52 85.54 16.32L87.36 16.12V4.34C87.36 3.287 87.333 2.507 87.28 2L85.62 1.76001C85.54 1.53301 85.54 1.30699 85.62 1.07999H90.02L95.04 14.24L100.18 1.07999C100.486 1.09299 100.953 1.10001 101.58 1.10001C101.713 1.10001 102.76 1.08001 104.72 1.04001C104.8 1.28001 104.8 1.52001 104.72 1.76001L103.06 2C103.006 2.507 102.98 3.287 102.98 4.34V16.12L104.6 16.32C104.653 16.52 104.653 16.767 104.6 17.06C103.76 17.02 102.846 17 101.86 17C101.14 17 100.22 17.013 99.1 17.04C99.02 16.707 99.02 16.467 99.1 16.32L100.76 16.08C100.813 15.573 100.84 14.793 100.84 13.74ZM114.52 0.679993C115.827 0.679993 117 0.913005 118.04 1.38C119.08 1.847 119.92 2.47301 120.56 3.26001C121.2 4.03301 121.687 4.89999 122.02 5.85998C122.367 6.80698 122.54 7.8 122.54 8.84C122.54 11.24 121.787 13.267 120.28 14.92C118.774 16.573 116.854 17.4 114.52 17.4C113.227 17.4 112.06 17.167 111.02 16.7C109.98 16.233 109.14 15.613 108.5 14.84C107.86 14.053 107.367 13.187 107.02 12.24C106.687 11.293 106.52 10.307 106.52 9.28C106.52 7.747 106.854 6.32699 107.52 5.01999C108.2 3.71299 109.154 2.667 110.38 1.88C111.62 1.08 113 0.679993 114.52 0.679993ZM114.5 16.3C115.754 16.3 116.814 15.94 117.68 15.22C118.56 14.487 119.187 13.567 119.56 12.46C119.947 11.353 120.14 10.12 120.14 8.76001C120.14 7.46701 119.947 6.31299 119.56 5.29999C119.187 4.27299 118.567 3.433 117.7 2.78C116.834 2.113 115.767 1.78 114.5 1.78C112.674 1.78 111.287 2.447 110.34 3.78C109.394 5.113 108.92 6.78 108.92 8.78C108.92 10.153 109.107 11.393 109.48 12.5C109.854 13.593 110.474 14.5 111.34 15.22C112.207 15.94 113.26 16.3 114.5 16.3ZM124.45 1.01999C124.997 1.01999 125.863 0.993002 127.05 0.940002C128.25 0.887002 129.337 0.859985 130.31 0.859985C132.337 0.859985 133.783 1.26699 134.65 2.07999C135.517 2.87999 135.95 4 135.95 5.44C135.95 6.307 135.65 7.087 135.05 7.78C134.45 8.473 133.663 8.993 132.69 9.34C133.263 10.313 133.797 11.227 134.29 12.08C134.797 12.933 135.163 13.567 135.39 13.98C135.617 14.393 135.823 14.767 136.01 15.1C136.197 15.42 136.33 15.64 136.41 15.76C136.503 15.88 136.59 15.98 136.67 16.06L138.11 16.26C138.163 16.46 138.163 16.707 138.11 17H134.71L131.69 11.52C131.29 10.76 130.91 10.173 130.55 9.76001H130.27C129.59 9.76001 128.903 9.72001 128.21 9.64001V16.12L130.03 16.32C130.083 16.52 130.083 16.767 130.03 17.06C129.19 17.02 128.243 17 127.19 17C126.403 17 125.45 17.013 124.33 17.04C124.25 16.8 124.25 16.56 124.33 16.32L125.99 16.08C126.043 15.573 126.07 14.793 126.07 13.74V1.95999L124.45 1.76001C124.397 1.56001 124.397 1.31299 124.45 1.01999ZM128.21 4.34V8.82001C128.623 8.87301 129.223 8.89999 130.01 8.89999C130.69 8.89999 131.27 8.79299 131.75 8.57999C132.243 8.35299 132.61 8.06001 132.85 7.70001C133.09 7.32701 133.263 6.947 133.37 6.56C133.477 6.173 133.53 5.767 133.53 5.34C133.53 4.193 133.243 3.3 132.67 2.66C132.097 2.02 131.143 1.70001 129.81 1.70001C129.317 1.70001 128.823 1.747 128.33 1.84C128.25 2.6 128.21 3.433 128.21 4.34ZM140.245 16.12L141.865 16.32C141.918 16.52 141.918 16.767 141.865 17.06C141.025 17.02 140.318 17 139.745 17C139.425 17 138.705 17.013 137.585 17.04C137.505 16.8 137.505 16.56 137.585 16.32L138.905 16.08C139.118 15.76 139.385 15.167 139.705 14.3L144.865 0.5H145.565L151.365 16.12L152.985 16.32C153.038 16.52 153.038 16.767 152.985 17.06C152.145 17.02 151.205 17 150.165 17C149.391 17 148.445 17.013 147.325 17.04C147.245 16.8 147.245 16.56 147.325 16.32L148.985 16.08L147.225 11.14H142.025L140.245 16.12ZM144.685 3.51999H144.665C144.505 4.14699 144.245 4.96701 143.885 5.98001L142.385 10.14H146.865L145.405 5.98001C145.125 5.16701 144.885 4.34699 144.685 3.51999ZM166.549 11.64V4.39999C166.549 3.34699 166.523 2.567 166.469 2.06L164.609 1.82001C164.529 1.58001 164.529 1.34001 164.609 1.10001C165.449 1.14001 166.263 1.16 167.049 1.16C167.916 1.16 168.723 1.13299 169.469 1.07999C169.523 1.37299 169.523 1.62001 169.469 1.82001L167.649 2.01999V17H166.589L157.769 5.06C157.356 4.513 156.869 3.80001 156.309 2.92001C156.376 3.53301 156.409 4.27301 156.409 5.14001V13.74C156.409 14.793 156.436 15.573 156.489 16.08L158.349 16.32C158.429 16.56 158.429 16.8 158.349 17.04C157.203 17.013 156.389 17 155.909 17C155.123 17 154.316 17.02 153.489 17.06C153.436 16.767 153.436 16.52 153.489 16.32L155.309 16.12V4.34C155.309 3.287 155.283 2.507 155.229 2L153.569 1.76001C153.489 1.53301 153.489 1.30699 153.569 1.07999H157.489L165.509 12C165.616 12.147 165.729 12.32 165.849 12.52C165.983 12.72 166.123 12.96 166.269 13.24C166.429 13.52 166.556 13.733 166.649 13.88C166.583 13.08 166.549 12.333 166.549 11.64ZM183.792 17.36L183.272 15.72C181.725 16.84 180.232 17.4 178.792 17.4C177.485 17.4 176.345 17.167 175.372 16.7C174.398 16.22 173.592 15.593 172.952 14.82C172.312 14.033 171.832 13.147 171.512 12.16C171.205 11.16 171.052 10.14 171.052 9.10001C171.052 8.04701 171.232 7.01999 171.592 6.01999C171.965 5.00699 172.505 4.10701 173.212 3.32001C173.932 2.53301 174.805 1.90001 175.832 1.42001C176.858 0.927013 178.032 0.679993 179.352 0.679993C181.192 0.679993 182.885 1.08 184.432 1.88V5.72C184.192 5.76 183.978 5.78 183.792 5.78C183.592 5.78 183.425 5.76 183.292 5.72L182.652 2.38C181.798 1.847 180.618 1.57999 179.112 1.57999C178.272 1.57999 177.512 1.773 176.832 2.16C176.152 2.533 175.565 3.04701 175.072 3.70001C174.578 4.34001 174.198 5.10001 173.932 5.98001C173.665 6.84701 173.532 7.77301 173.532 8.76001C173.532 9.81301 173.652 10.787 173.892 11.68C174.145 12.573 174.498 13.347 174.952 14C175.405 14.653 175.952 15.167 176.592 15.54C177.245 15.9 177.972 16.08 178.772 16.08C180.065 16.08 181.338 15.727 182.592 15.02V10.76L180.972 10.56C180.945 10.493 180.932 10.387 180.932 10.24C180.932 10.173 180.932 10.107 180.932 10.04C180.932 9.97301 180.945 9.90001 180.972 9.82001C181.345 9.84701 181.752 9.867 182.192 9.88C182.645 9.893 183.152 9.89999 183.712 9.89999C184.685 9.89999 185.605 9.88 186.472 9.84C186.512 9.96 186.532 10.08 186.532 10.2C186.532 10.32 186.512 10.44 186.472 10.56L184.812 10.8C184.785 11.053 184.765 11.373 184.752 11.76C184.738 12.147 184.732 12.607 184.732 13.14V15.16L184.532 17.36C184.478 17.387 184.425 17.4 184.372 17.4C184.318 17.4 184.258 17.4 184.192 17.4C184.125 17.4 184.058 17.4 183.992 17.4C183.925 17.4 183.858 17.387 183.792 17.36ZM191.726 4.34V16.12L193.346 16.32C193.399 16.52 193.399 16.767 193.346 17.06C192.506 17.02 191.592 17 190.606 17C189.886 17 188.966 17.013 187.846 17.04C187.766 16.8 187.766 16.56 187.846 16.32L189.506 16.08C189.559 15.573 189.586 14.793 189.586 13.74V1.95999L187.966 1.76001C187.912 1.56001 187.912 1.31299 187.966 1.01999C188.699 1.07299 189.612 1.10001 190.706 1.10001C191.679 1.10001 192.599 1.08001 193.466 1.04001C193.546 1.28001 193.546 1.52001 193.466 1.76001L191.806 2C191.752 2.507 191.726 3.287 191.726 4.34ZM197.066 13.76V1.95999L195.446 1.73999C195.366 1.49999 195.366 1.25999 195.446 1.01999L198.186 1.07999H206.266L206.286 5.72C205.993 5.773 205.746 5.773 205.546 5.72L204.606 2.10001H199.206V8.10001L202.406 8.04001L202.866 6.07999C203.066 6.02699 203.313 6.02699 203.606 6.07999C203.553 6.82699 203.526 7.687 203.526 8.66C203.526 9.553 203.546 10.42 203.586 11.26C203.346 11.34 203.106 11.34 202.866 11.26L202.426 9.17999L199.206 9.11999V15.98H205.206L206.146 12.36C206.346 12.307 206.593 12.307 206.886 12.36L206.866 17H198.186L195.326 17.06C195.246 16.82 195.246 16.58 195.326 16.34L196.986 16.12C197.04 15.44 197.066 14.653 197.066 13.76ZM13.2351 44.36L12.7151 42.72C11.1684 43.84 9.67512 44.4 8.23512 44.4C6.92842 44.4 5.78842 44.167 4.81512 43.7C3.84172 43.22 3.03512 42.593 2.39512 41.82C1.75512 41.033 1.27512 40.147 0.955116 39.16C0.648416 38.16 0.495117 37.14 0.495117 36.1C0.495117 35.047 0.675118 34.02 1.03512 33.02C1.40842 32.007 1.94841 31.107 2.65511 30.32C3.37511 29.533 4.24842 28.9 5.27512 28.42C6.30172 27.927 7.47511 27.68 8.79511 27.68C10.6351 27.68 12.3284 28.08 13.8751 28.88V32.72C13.6351 32.76 13.4217 32.78 13.2351 32.78C13.0351 32.78 12.8684 32.76 12.7351 32.72L12.0951 29.38C11.2417 28.847 10.0617 28.58 8.55511 28.58C7.71511 28.58 6.95512 28.773 6.27512 29.16C5.59512 29.533 5.00841 30.047 4.51511 30.7C4.02171 31.34 3.64171 32.1 3.37511 32.98C3.10841 33.847 2.97511 34.773 2.97511 35.76C2.97511 36.813 3.09511 37.787 3.33511 38.68C3.58841 39.573 3.94172 40.347 4.39512 41C4.84842 41.653 5.39512 42.167 6.03512 42.54C6.68842 42.9 7.41512 43.08 8.21512 43.08C9.50842 43.08 10.7817 42.727 12.0351 42.02V37.76L10.4151 37.56C10.3884 37.493 10.3751 37.387 10.3751 37.24C10.3751 37.173 10.3751 37.107 10.3751 37.04C10.3751 36.973 10.3884 36.9 10.4151 36.82C10.7884 36.847 11.1951 36.867 11.6351 36.88C12.0884 36.893 12.5951 36.9 13.1551 36.9C14.1284 36.9 15.0484 36.88 15.9151 36.84C15.9551 36.96 15.9751 37.08 15.9751 37.2C15.9751 37.32 15.9551 37.44 15.9151 37.56L14.2551 37.8C14.2284 38.053 14.2084 38.373 14.1951 38.76C14.1817 39.147 14.1751 39.607 14.1751 40.14V42.16L13.9751 44.36C13.9217 44.387 13.8684 44.4 13.8151 44.4C13.7617 44.4 13.7017 44.4 13.6351 44.4C13.5684 44.4 13.5017 44.4 13.4351 44.4C13.3684 44.4 13.3017 44.387 13.2351 44.36ZM17.4091 28.02C17.9558 28.02 18.8225 27.993 20.0091 27.94C21.2091 27.887 22.2958 27.86 23.2691 27.86C25.2958 27.86 26.7425 28.267 27.6091 29.08C28.476 29.88 28.909 31 28.909 32.44C28.909 33.307 28.609 34.087 28.009 34.78C27.4091 35.473 26.6225 35.993 25.6491 36.34C26.2225 37.313 26.7558 38.227 27.2491 39.08C27.7558 39.933 28.122 40.567 28.349 40.98C28.576 41.393 28.782 41.767 28.969 42.1C29.156 42.42 29.289 42.64 29.369 42.76C29.462 42.88 29.549 42.98 29.629 43.06L31.069 43.26C31.122 43.46 31.122 43.707 31.069 44H27.6691L24.6491 38.52C24.2491 37.76 23.8691 37.173 23.5091 36.76H23.2291C22.5491 36.76 21.8625 36.72 21.1691 36.64V43.12L22.9891 43.32C23.0425 43.52 23.0425 43.767 22.9891 44.06C22.1491 44.02 21.2025 44 20.1491 44C19.3625 44 18.4091 44.013 17.2891 44.04C17.2091 43.8 17.2091 43.56 17.2891 43.32L18.9491 43.08C19.0025 42.573 19.0291 41.793 19.0291 40.74V28.96L17.4091 28.76C17.3558 28.56 17.3558 28.313 17.4091 28.02ZM21.1691 31.34V35.82C21.5825 35.873 22.1825 35.9 22.9691 35.9C23.6491 35.9 24.2291 35.793 24.7091 35.58C25.2025 35.353 25.5691 35.06 25.8091 34.7C26.0491 34.327 26.2225 33.947 26.3291 33.56C26.4358 33.173 26.4891 32.767 26.4891 32.34C26.4891 31.193 26.2025 30.3 25.6291 29.66C25.0558 29.02 24.1025 28.7 22.7691 28.7C22.2758 28.7 21.7825 28.747 21.2891 28.84C21.2091 29.6 21.1691 30.433 21.1691 31.34ZM33.204 43.12L34.824 43.32C34.877 43.52 34.877 43.767 34.824 44.06C33.984 44.02 33.277 44 32.704 44C32.384 44 31.664 44.013 30.544 44.04C30.464 43.8 30.464 43.56 30.544 43.32L31.864 43.08C32.077 42.76 32.344 42.167 32.664 41.3L37.824 27.5H38.524L44.324 43.12L45.944 43.32C45.997 43.52 45.997 43.767 45.944 44.06C45.104 44.02 44.164 44 43.124 44C42.35 44 41.404 44.013 40.284 44.04C40.204 43.8 40.204 43.56 40.284 43.32L41.944 43.08L40.184 38.14H34.984L33.204 43.12ZM37.644 30.52H37.624C37.464 31.147 37.204 31.967 36.844 32.98L35.344 37.14H39.824L38.364 32.98C38.084 32.167 37.844 31.347 37.644 30.52ZM59.508 38.64V31.4C59.508 30.347 59.482 29.567 59.428 29.06L57.568 28.82C57.488 28.58 57.488 28.34 57.568 28.1C58.408 28.14 59.222 28.16 60.008 28.16C60.875 28.16 61.682 28.133 62.428 28.08C62.482 28.373 62.482 28.62 62.428 28.82L60.608 29.02V44H59.548L50.728 32.06C50.315 31.513 49.828 30.8 49.268 29.92C49.335 30.533 49.368 31.273 49.368 32.14V40.74C49.368 41.793 49.395 42.573 49.448 43.08L51.308 43.32C51.388 43.56 51.388 43.8 51.308 44.04C50.162 44.013 49.348 44 48.868 44C48.082 44 47.275 44.02 46.448 44.06C46.395 43.767 46.395 43.52 46.448 43.32L48.268 43.12V31.34C48.268 30.287 48.242 29.507 48.188 29L46.528 28.76C46.448 28.533 46.448 28.307 46.528 28.08H50.448L58.468 39C58.575 39.147 58.688 39.32 58.808 39.52C58.942 39.72 59.082 39.96 59.228 40.24C59.388 40.52 59.515 40.733 59.608 40.88C59.542 40.08 59.508 39.333 59.508 38.64ZM64.086 44.04C64.006 43.8 64.006 43.56 64.086 43.32L65.746 43.08C65.799 42.573 65.826 41.793 65.826 40.74V28.96L64.206 28.76C64.153 28.56 64.153 28.313 64.206 28.02C64.406 28.033 64.719 28.04 65.146 28.04C65.999 28.04 67.099 28.007 68.446 27.94C69.806 27.86 70.586 27.82 70.786 27.82C73.399 27.82 75.379 28.527 76.726 29.94C78.073 31.353 78.746 33.253 78.746 35.64C78.746 38.067 78.113 40.08 76.846 41.68C75.579 43.28 73.806 44.08 71.526 44.08C70.766 44.08 69.759 44.067 68.506 44.04C67.253 44.027 66.353 44.02 65.806 44.02C65.033 44.02 64.459 44.027 64.086 44.04ZM70.766 43.12C74.526 43.12 76.406 40.667 76.406 35.76C76.406 33.64 75.913 31.967 74.926 30.74C73.953 29.513 72.546 28.86 70.706 28.78C70.546 28.767 70.299 28.76 69.966 28.76C69.259 28.76 68.619 28.813 68.046 28.92C67.993 29.427 67.966 30.233 67.966 31.34V43.06C68.126 43.06 68.506 43.073 69.106 43.1C69.719 43.113 70.273 43.12 70.766 43.12ZM92.767 41.56H92.787C92.947 40.933 93.207 40.113 93.567 39.1L97.207 28.96L95.587 28.76C95.534 28.56 95.534 28.313 95.587 28.02C96.32 28.073 97.027 28.1 97.707 28.1C98.294 28.1 99.014 28.08 99.867 28.04C99.947 28.28 99.947 28.52 99.867 28.76L98.547 29C98.334 29.32 98.067 29.913 97.747 30.78L92.587 44.6H91.887L85.967 28.96L84.347 28.76C84.294 28.56 84.294 28.313 84.347 28.02C85.08 28.073 86.027 28.1 87.187 28.1C88.227 28.1 89.18 28.08 90.047 28.04C90.127 28.28 90.127 28.52 90.047 28.76L88.387 29L92.047 39.1C92.327 39.913 92.567 40.733 92.767 41.56ZM104.489 31.34V43.12L106.109 43.32C106.163 43.52 106.163 43.767 106.109 44.06C105.269 44.02 104.356 44 103.369 44C102.649 44 101.729 44.013 100.609 44.04C100.529 43.8 100.529 43.56 100.609 43.32L102.269 43.08C102.323 42.573 102.349 41.793 102.349 40.74V28.96L100.729 28.76C100.676 28.56 100.676 28.313 100.729 28.02C101.463 28.073 102.376 28.1 103.469 28.1C104.443 28.1 105.363 28.08 106.229 28.04C106.309 28.28 106.309 28.52 106.229 28.76L104.569 29C104.516 29.507 104.489 30.287 104.489 31.34ZM121.11 38.64V31.4C121.11 30.347 121.083 29.567 121.03 29.06L119.17 28.82C119.09 28.58 119.09 28.34 119.17 28.1C120.01 28.14 120.823 28.16 121.61 28.16C122.477 28.16 123.283 28.133 124.03 28.08C124.083 28.373 124.083 28.62 124.03 28.82L122.21 29.02V44H121.15L112.33 32.06C111.917 31.513 111.43 30.8 110.87 29.92C110.937 30.533 110.97 31.273 110.97 32.14V40.74C110.97 41.793 110.997 42.573 111.05 43.08L112.91 43.32C112.99 43.56 112.99 43.8 112.91 44.04C111.763 44.013 110.95 44 110.47 44C109.683 44 108.877 44.02 108.05 44.06C107.997 43.767 107.997 43.52 108.05 43.32L109.87 43.12V31.34C109.87 30.287 109.843 29.507 109.79 29L108.13 28.76C108.05 28.533 108.05 28.307 108.13 28.08H112.05L120.07 39C120.177 39.147 120.29 39.32 120.41 39.52C120.543 39.72 120.683 39.96 120.83 40.24C120.99 40.52 121.117 40.733 121.21 40.88C121.143 40.08 121.11 39.333 121.11 38.64ZM125.308 28.08H139.128L139.148 32.72C138.854 32.773 138.608 32.773 138.408 32.72L137.468 29.1H133.308V43.12L135.328 43.32C135.381 43.52 135.381 43.767 135.328 44.06C134.488 44.02 133.474 44 132.288 44C131.368 44 130.348 44.013 129.228 44.04C129.148 43.8 129.148 43.56 129.228 43.32L131.088 43.08C131.141 42.573 131.168 41.793 131.168 40.74V29.1H126.968L126.028 32.72C125.828 32.773 125.581 32.773 125.288 32.72L125.308 28.08ZM140.938 43.12L142.558 43.32C142.611 43.52 142.611 43.767 142.558 44.06C141.718 44.02 141.011 44 140.438 44C140.118 44 139.398 44.013 138.278 44.04C138.198 43.8 138.198 43.56 138.278 43.32L139.598 43.08C139.811 42.76 140.078 42.167 140.398 41.3L145.558 27.5H146.258L152.058 43.12L153.678 43.32C153.731 43.52 153.731 43.767 153.678 44.06C152.838 44.02 151.898 44 150.858 44C150.085 44 149.138 44.013 148.018 44.04C147.938 43.8 147.938 43.56 148.018 43.32L149.678 43.08L147.918 38.14H142.718L140.938 43.12ZM145.378 30.52H145.358C145.198 31.147 144.938 31.967 144.578 32.98L143.078 37.14H147.558L146.098 32.98C145.818 32.167 145.578 31.347 145.378 30.52ZM166.634 44.36L166.114 42.72C164.567 43.84 163.074 44.4 161.634 44.4C160.327 44.4 159.187 44.167 158.214 43.7C157.24 43.22 156.434 42.593 155.794 41.82C155.154 41.033 154.674 40.147 154.354 39.16C154.047 38.16 153.894 37.14 153.894 36.1C153.894 35.047 154.074 34.02 154.434 33.02C154.807 32.007 155.347 31.107 156.054 30.32C156.774 29.533 157.647 28.9 158.674 28.42C159.7 27.927 160.874 27.68 162.194 27.68C164.034 27.68 165.727 28.08 167.274 28.88V32.72C167.034 32.76 166.82 32.78 166.634 32.78C166.434 32.78 166.267 32.76 166.134 32.72L165.494 29.38C164.64 28.847 163.46 28.58 161.954 28.58C161.114 28.58 160.354 28.773 159.674 29.16C158.994 29.533 158.407 30.047 157.914 30.7C157.42 31.34 157.04 32.1 156.774 32.98C156.507 33.847 156.374 34.773 156.374 35.76C156.374 36.813 156.494 37.787 156.734 38.68C156.987 39.573 157.34 40.347 157.794 41C158.247 41.653 158.794 42.167 159.434 42.54C160.087 42.9 160.814 43.08 161.614 43.08C162.907 43.08 164.18 42.727 165.434 42.02V37.76L163.814 37.56C163.787 37.493 163.774 37.387 163.774 37.24C163.774 37.173 163.774 37.107 163.774 37.04C163.774 36.973 163.787 36.9 163.814 36.82C164.187 36.847 164.594 36.867 165.034 36.88C165.487 36.893 165.994 36.9 166.554 36.9C167.527 36.9 168.447 36.88 169.314 36.84C169.354 36.96 169.374 37.08 169.374 37.2C169.374 37.32 169.354 37.44 169.314 37.56L167.654 37.8C167.627 38.053 167.607 38.373 167.594 38.76C167.58 39.147 167.574 39.607 167.574 40.14V42.16L167.374 44.36C167.32 44.387 167.267 44.4 167.214 44.4C167.16 44.4 167.1 44.4 167.034 44.4C166.967 44.4 166.9 44.4 166.834 44.4C166.767 44.4 166.7 44.387 166.634 44.36ZM172.428 40.76V28.96L170.808 28.74C170.728 28.5 170.728 28.26 170.808 28.02L173.548 28.08H181.628L181.648 32.72C181.354 32.773 181.108 32.773 180.908 32.72L179.968 29.1H174.568V35.1L177.768 35.04L178.228 33.08C178.428 33.027 178.674 33.027 178.968 33.08C178.914 33.827 178.888 34.687 178.888 35.66C178.888 36.553 178.908 37.42 178.948 38.26C178.708 38.34 178.468 38.34 178.228 38.26L177.788 36.18L174.568 36.12V42.98H180.568L181.508 39.36C181.708 39.307 181.954 39.307 182.248 39.36L182.228 44H173.548L170.688 44.06C170.608 43.82 170.608 43.58 170.688 43.34L172.348 43.12C172.401 42.44 172.428 41.653 172.428 40.76ZM193.684 30.92V42.98L196.064 43.28C196.117 43.493 196.117 43.76 196.064 44.08C195.224 44.04 194.084 44.02 192.644 44.02C191.457 44.02 190.304 44.033 189.184 44.06C189.104 43.807 189.104 43.547 189.184 43.28L191.564 43.06C191.617 42.327 191.644 41.48 191.644 40.52V29.54L189.004 30C188.95 29.747 188.95 29.427 189.004 29.04L193.584 27.68C193.704 27.813 193.77 27.947 193.784 28.08C193.717 28.427 193.684 29.04 193.684 29.92V30.92ZM208.371 34.96C208.371 38.027 207.871 40.367 206.871 41.98C205.885 43.593 204.511 44.4 202.751 44.4C201.591 44.4 200.618 44.133 199.831 43.6C199.058 43.067 198.605 42.313 198.471 41.34C199.045 40.967 199.765 40.76 200.631 40.72C200.805 41.693 201.058 42.4 201.391 42.84C201.725 43.267 202.245 43.48 202.951 43.48C204.005 43.48 204.831 42.84 205.431 41.56C206.031 40.28 206.331 38.467 206.331 36.12H206.291C205.465 37.493 204.231 38.18 202.591 38.18C201.151 38.18 200.051 37.687 199.291 36.7C198.531 35.7 198.151 34.527 198.151 33.18C198.151 31.633 198.611 30.32 199.531 29.24C200.465 28.16 201.618 27.62 202.991 27.62C203.805 27.62 204.531 27.76 205.171 28.04C205.811 28.32 206.325 28.693 206.711 29.16C207.111 29.613 207.438 30.167 207.691 30.82C207.945 31.473 208.118 32.133 208.211 32.8C208.318 33.467 208.371 34.187 208.371 34.96ZM200.451 33.26C200.451 34.353 200.665 35.293 201.091 36.08C201.518 36.853 202.118 37.24 202.891 37.24C203.905 37.24 204.678 36.907 205.211 36.24C205.745 35.56 206.011 34.64 206.011 33.48C206.011 31.76 205.751 30.507 205.231 29.72C204.711 28.92 203.931 28.52 202.891 28.52C202.091 28.52 201.485 28.947 201.071 29.8C200.658 30.653 200.451 31.807 200.451 33.26ZM220.481 34.96C220.481 38.027 219.981 40.367 218.981 41.98C217.994 43.593 216.621 44.4 214.861 44.4C213.701 44.4 212.727 44.133 211.941 43.6C211.167 43.067 210.714 42.313 210.581 41.34C211.154 40.967 211.874 40.76 212.741 40.72C212.914 41.693 213.167 42.4 213.501 42.84C213.834 43.267 214.354 43.48 215.061 43.48C216.114 43.48 216.941 42.84 217.541 41.56C218.141 40.28 218.441 38.467 218.441 36.12H218.401C217.574 37.493 216.341 38.18 214.701 38.18C213.261 38.18 212.161 37.687 211.401 36.7C210.641 35.7 210.261 34.527 210.261 33.18C210.261 31.633 210.721 30.32 211.641 29.24C212.574 28.16 213.727 27.62 215.101 27.62C215.914 27.62 216.641 27.76 217.281 28.04C217.921 28.32 218.434 28.693 218.821 29.16C219.221 29.613 219.547 30.167 219.801 30.82C220.054 31.473 220.227 32.133 220.321 32.8C220.427 33.467 220.481 34.187 220.481 34.96ZM212.561 33.26C212.561 34.353 212.774 35.293 213.201 36.08C213.627 36.853 214.227 37.24 215.001 37.24C216.014 37.24 216.787 36.907 217.321 36.24C217.854 35.56 218.121 34.64 218.121 33.48C218.121 31.76 217.861 30.507 217.341 29.72C216.821 28.92 216.041 28.52 215.001 28.52C214.201 28.52 213.594 28.947 213.181 29.8C212.767 30.653 212.561 31.807 212.561 33.26ZM231.07 28.08C231.203 28.52 231.27 28.993 231.27 29.5L226.29 44H223.85L230.01 30.06H226.99C225.057 30.14 223.65 30.353 222.77 30.7H222.25V28.08H231.07Z" fill="white"/>
</svg>
